<?xml version="1.0" encoding="UTF-8" standalone="no"?>
<svg width="143px" height="143px" viewBox="0 0 143 143" version="1.1" xmlns="http://www.w3.org/2000/svg" xmlns:xlink="http://www.w3.org/1999/xlink">
    <!-- Generator: Sketch 42 (36781) - http://www.bohemiancoding.com/sketch -->
    <title>Group 9</title>
    <desc>Created with Sketch.</desc>
    <defs></defs>
    <g id="Welcome" stroke="none" stroke-width="1" fill="none" fill-rule="evenodd">
        <g id="Desktop" transform="translate(-122.000000, -1079.000000)">
            <g id="Group-9" transform="translate(122.000000, 1062.000000)">
                <g id="Group-14">
                    <ellipse id="Oval-5" fill="#00425C" cx="71.1868033" cy="88.6438143" rx="71.1868033" ry="71"></ellipse>
                    <g id="Group-6" transform="translate(17.092593, 0.098073)" stroke-width="2" stroke="#F9F9F9">
                        <g id="fa-male">
                            <path d="M30.9260612,102.220781 C31.7980167,103.17041 32.9296212,103.601011 34.2317414,103.601011 C35.4524791,103.601011 36.5802083,103.17041 37.4521638,102.220781 C38.4093772,101.355734 38.8434172,100.23694 38.8434172,99.0258748 L38.8434172,82.1132492 L41.9747064,82.1132492 L41.9747064,126.038402 C41.9747064,127.503215 42.4978797,128.71428 43.540351,129.833074 C44.6719554,130.87113 45.9740757,131.386314 47.4544624,131.386314 C48.9348491,131.386314 50.1517114,130.87113 51.2833159,129.833074 C52.3257872,128.71428 52.8489605,127.503215 52.8489605,125.949975 L52.8489605,103.601011 L55.9802496,103.601011 L55.9802496,125.949975 C55.9802496,127.503215 56.503423,128.71428 57.5458942,129.833074 C58.6774987,130.87113 59.8943611,131.386314 61.3708724,131.386314 C62.8512591,131.386314 64.1572547,130.87113 65.2849838,129.833074 C66.3313305,128.71428 66.8545038,127.503215 66.8545038,126.038402 L66.8545038,82.1132492 L69.8966597,82.1132492 L69.8966597,99.0258748 C69.8966597,100.23694 70.3306998,101.355734 71.2879131,102.220781 C72.1598687,103.17041 73.2914732,103.601011 74.5935934,103.601011 C75.8104558,103.601011 76.9420602,103.17041 77.8140158,102.220781 C78.7712292,101.355734 79.2052692,100.23694 79.2052692,99.0258748 L79.2052692,79.0067701 C79.2052692,76.4154744 78.3333137,74.2586244 76.5080202,72.4477932 C74.6827266,70.6369619 72.5086509,69.7719152 69.8966597,69.7719152 L38.8434172,69.7719152 C36.2353014,69.7719152 34.0612257,70.6369619 32.2320568,72.4477932 C30.4067632,74.2586244 29.5348077,76.4154744 29.5348077,79.0067701 L29.5348077,99.0258748 C29.5348077,100.23694 29.9727231,101.355734 30.9260612,102.220781 L30.9260612,102.220781 Z M54.4146051,68.303258 C57.456761,68.303258 59.9796189,67.2690465 62.1536947,65.1121965 C64.2425126,63.0399289 65.2849838,60.5370602 65.2849838,57.5190081 C65.2849838,54.4971114 64.2425126,51.9942427 62.1536947,49.9258198 C59.9796189,47.7651251 57.456761,46.7309137 54.4146051,46.7309137 C51.3685738,46.7309137 48.8457158,47.7651251 46.6716401,49.9258198 C44.5828222,51.9942427 43.540351,54.4971114 43.540351,57.5190081 C43.540351,60.5370602 44.5828222,63.0399289 46.6716401,65.1121965 C48.8457158,67.2690465 51.3685738,68.303258 54.4146051,68.303258 L54.4146051,68.303258 Z" id="Fill-19"></path>
                        </g>
                    </g>
                </g>
            </g>
        </g>
    </g>
</svg>