<?xml version="1.0" encoding="UTF-8" standalone="no"?>
<svg width="142px" height="142px" viewBox="0 0 142 142" version="1.1" xmlns="http://www.w3.org/2000/svg" xmlns:xlink="http://www.w3.org/1999/xlink">
    <!-- Generator: Sketch 42 (36781) - http://www.bohemiancoding.com/sketch -->
    <title>Group 4</title>
    <desc>Created with Sketch.</desc>
    <defs></defs>
    <g id="Welcome" stroke="none" stroke-width="1" fill="none" fill-rule="evenodd">
        <g id="Desktop" transform="translate(-762.000000, -2969.000000)">
            <g id="Group-4" transform="translate(760.000000, 2969.000000)">
                <circle id="Oval-5-Copy-3" fill="#00425C" cx="73" cy="71" r="71"></circle>
                <g id="Group-8" transform="translate(0.000000, 5.000000)" stroke-width="2" stroke="#F9F9F9">
                    <g id="fa-envelope">
                        <path d="M38.1124018,95.1286572 C39.4717584,96.4714047 41.0565528,97.181444 42.8701498,97.181444 L104.949676,97.181444 C106.763273,97.181444 108.348068,96.4714047 109.707424,95.1286572 C110.992756,93.7085786 111.672435,92.0529919 111.672435,90.1583822 L111.672435,55.2082799 C110.461127,56.6283585 109.027746,57.89026 107.442952,58.9939844 C98.2269178,65.5425151 91.2787215,70.5901211 86.4469491,74.2211636 C84.8621547,75.4830652 83.5768225,76.4286125 82.5943173,77.1386518 C81.5377877,77.7713601 80.2524555,78.4813994 78.5902719,79.1914387 C76.9314531,79.901478 75.4206831,80.2951631 73.9839374,80.2951631 L73.8325239,80.2951631 C72.399143,80.2951631 70.8883729,79.901478 69.2261894,79.1914387 C67.5640059,78.4813994 66.2820384,77.7713601 65.2255088,77.1386518 C64.2430036,76.4286125 62.9576714,75.4830652 61.372877,74.2211636 C57.5202451,71.3001604 50.5720488,66.2525544 40.3768745,58.9939844 C38.7920801,57.89026 37.3553344,56.6283585 36.1473913,55.2082799 L36.1473913,90.1583822 C36.1473913,92.0529919 36.8270696,93.7085786 38.1124018,95.1286572 L38.1124018,95.1286572 Z M38.4892531,49.2116115 C40.0000232,51.4190603 41.6622067,53.074647 43.3984146,54.3400635 C44.3809198,55.0501028 47.2476817,57.0993746 52.0087944,60.5722401 C56.8405668,64.1224365 60.5417852,66.7270856 63.1090849,68.6181803 C63.3345227,68.8572035 63.9401766,69.3282196 64.8452927,69.9609279 C65.7537736,70.6709672 66.5074763,71.2228294 67.1131302,71.6165146 C67.7154194,72.0910458 68.4724868,72.565577 69.3035785,73.1174392 C70.2086947,73.5884554 70.9623973,73.9856556 71.7934891,74.3020097 C72.5505565,74.5375178 73.2302348,74.6956949 73.8325239,74.6956949 L73.9839374,74.6956949 C74.5895913,74.6956949 75.2692696,74.5375178 76.0229723,74.3020097 C76.854064,73.9856556 77.6111314,73.5884554 78.5162476,73.1174392 C79.3473393,72.565577 80.101042,72.0910458 80.7066959,71.6165146 C81.3089851,71.2228294 82.0660525,70.6709672 82.9711686,69.9609279 C83.8796495,69.3282196 84.4819386,68.8572035 84.7107412,68.6181803 C87.3520653,66.7270856 93.9234103,61.9923187 104.495436,54.3400635 C106.534471,52.8391389 108.196654,51.0253752 109.6334,48.8952573 C110.992756,46.7651394 111.672435,44.5541755 111.672435,42.2658806 C111.672435,40.2939398 110.992756,38.6383531 109.6334,37.2956056 C108.348068,35.875527 106.763273,35.2463337 104.949676,35.2463337 L42.8701498,35.2463337 C40.7537258,35.2463337 39.0915423,35.956373 37.8835992,37.5346287 C36.7530452,39.0320383 36.1473913,40.9266481 36.1473913,43.214943 C36.1473913,45.1060377 36.901094,47.0814936 38.4892531,49.2116115 L38.4892531,49.2116115 Z" id="Fill-100"></path>
                    </g>
                </g>
            </g>
        </g>
    </g>
</svg>