<svg id="Layer_1" data-name="Layer 1" xmlns="http://www.w3.org/2000/svg" viewBox="0 0 204.6 220.55"><defs><style>.cls-1{fill:#f9f9f9;}</style></defs><title>logo</title><path class="cls-1" d="M108.57,96.74A74.35,74.35,0,0,1,133,77.5L88.26,0,0,152.87H90.55c-0.18-2.22-.29-4.47-0.29-6.76Q90.26,118.42,108.57,96.74Z"/><path class="cls-1" d="M127.72,106.88q-15.4,16-15.39,39a62.93,62.93,0,0,0,.39,6.95h63.81l-33.14-57.4A51.66,51.66,0,0,0,127.72,106.88Z"/><path class="cls-1" d="M112.13,198.87q22,21.69,53,21.68a79,79,0,0,0,39.42-10.61V183.57a110.46,110.46,0,0,1-10.18,7.7,56.5,56.5,0,0,1-9.34,5.07q-8.07,3.76-19.62,3.75-22.34,0-37.73-15.68a52,52,0,0,1-15-31.54H90.55Q92.71,179.43,112.13,198.87Z"/><path class="cls-1" d="M204.6,106.69V80.78q-18.21-10.61-37.74-10.61A76.78,76.78,0,0,0,133,77.5l10.38,18a51.48,51.48,0,0,1,22-4.65Q185.63,90.83,204.6,106.69Z"/></svg>