<?xml version="1.0" encoding="UTF-8" standalone="no"?>
<svg width="140px" height="95px" viewBox="0 0 140 95" version="1.1" xmlns="http://www.w3.org/2000/svg" xmlns:xlink="http://www.w3.org/1999/xlink">
    <!-- Generator: Sketch 42 (36781) - http://www.bohemiancoding.com/sketch -->
    <title>Group 7</title>
    <desc>Created with Sketch.</desc>
    <defs>
        <rect id="path-1" x="0.049413749" y="0.33328081" width="139.265414" height="94.0604533" rx="5"></rect>
        <mask id="mask-2" maskContentUnits="userSpaceOnUse" maskUnits="objectBoundingBox" x="0" y="0" width="139.265414" height="94.0604533" fill="white">
            <use xlink:href="#path-1"></use>
        </mask>
    </defs>
    <g id="Welcome" stroke="none" stroke-width="1" fill="none" fill-rule="evenodd">
        <g id="Desktop" transform="translate(-123.000000, -2431.000000)">
            <g id="Group-7" transform="translate(123.000000, 2431.000000)">
                <use id="Rectangle-3" stroke="#F9F9F9" mask="url(#mask-2)" stroke-width="4" xlink:href="#path-1"></use>
                <path d="M1.54154319,14.0504302 L137.325322,14.0504302" id="Line" stroke="#F9F9F9" stroke-width="2" stroke-linecap="square"></path>
                <ellipse id="Oval-4" fill="#F9F9F9" cx="8.00743741" cy="8.17165191" rx="1.98950591" ry="1.95959278"></ellipse>
                <ellipse id="Oval-4-Copy" fill="#F9F9F9" cx="14.9707081" cy="8.17165191" rx="1.98950591" ry="1.95959278"></ellipse>
                <ellipse id="Oval-4-Copy-2" fill="#F9F9F9" cx="21.9339788" cy="8.17165191" rx="1.98950591" ry="1.95959278"></ellipse>
                <path d="M2.03891966,68.1980337 C2.03891966,68.1980337 30.765105,28.0861212 42.0425755,27.5394055 C53.320046,26.9926898 85.5981681,68.1980337 85.5981681,68.1980337" id="Path-3" stroke="#F9F9F9" stroke-width="2"></path>
                <path d="M71.6716267,75.0566084 C71.6716267,75.0566084 94.6955725,42.9070386 103.734429,42.4688477 C112.773286,42.0306568 138.644098,75.0566084 138.644098,75.0566084" id="Path-3-Copy" stroke="#F9F9F9" stroke-width="2"></path>
                <path d="M48.7923087,37.5655436 C48.7923087,37.5655436 69.2258822,56.191097 70.5316493,58.7452126" id="Path-4" stroke="#F9F9F9" stroke-width="2"></path>
                <path d="M110.466992,53.2422858 C110.466992,53.2422858 128.232057,69.4354477 129.367298,71.6560104" id="Path-4-Copy" stroke="#F9F9F9" stroke-width="2"></path>
            </g>
        </g>
    </g>
</svg>