<?xml version="1.0" encoding="UTF-8" standalone="no"?>
<svg width="142px" height="142px" viewBox="0 0 142 142" version="1.1" xmlns="http://www.w3.org/2000/svg" xmlns:xlink="http://www.w3.org/1999/xlink">
    <!-- Generator: Sketch 42 (36781) - http://www.bohemiancoding.com/sketch -->
    <title>Group 3</title>
    <desc>Created with Sketch.</desc>
    <defs></defs>
    <g id="Welcome" stroke="none" stroke-width="1" fill="none" fill-rule="evenodd">
        <g id="Desktop" transform="translate(-682.000000, -2511.000000)">
            <g id="Group-3" transform="translate(682.000000, 2511.000000)">
                <circle id="Oval-5-Copy-2" fill="#00425C" cx="71" cy="71" r="71"></circle>
                <g id="Group-12" transform="translate(11.000000, 8.000000)" stroke="#F9F9F9" stroke-width="2">
                    <g id="fa-briefcase" transform="translate(0.000000, 8.000000)">
                        <path d="M26.2149245,84.1306141 C27.5142904,85.4703797 29.0323614,86.1788421 30.7627051,86.1788421 L90.1057732,86.1788421 C91.8361169,86.1788421 93.3541879,85.4703797 94.6535537,84.1306141 C95.8789458,82.7136893 96.5286287,81.0617794 96.5286287,79.1713772 L96.5286287,58.0753303 L69.4574345,58.0753303 L69.4574345,65.0827952 C69.4574345,65.8684169 69.2419456,66.4997201 68.736994,67.0503567 C68.2320424,67.6009933 67.5823595,67.9166449 66.9326766,67.9166449 L54.0097755,67.9166449 C53.2861188,67.9166449 52.7104096,67.6009933 52.205458,67.0503567 C51.7005065,66.4997201 51.4110438,65.8684169 51.4110438,65.0827952 L51.4110438,58.0753303 L24.3398495,58.0753303 L24.3398495,79.1713772 C24.3398495,81.0617794 24.9895325,82.7136893 26.2149245,84.1306141 L26.2149245,84.1306141 Z M96.5286287,53.8245557 L96.5286287,36.8986169 C96.5286287,35.0082147 95.8789458,33.3563048 94.6535537,31.9393799 C93.3541879,30.5996143 91.8361169,29.8911519 90.1057732,29.8911519 L75.8835063,29.8911519 L75.8835063,22.8871942 C75.8835063,21.7052544 75.523286,20.7618069 74.7288717,19.972678 C74.005215,19.1063898 73.0660694,18.7135789 72.0561662,18.7135789 L48.8830696,18.7135789 C47.7991926,18.7135789 46.8632632,19.1063898 46.1396065,19.972678 C45.3451922,20.7618069 44.984972,21.7052544 44.984972,22.8871942 L44.984972,29.8911519 L30.7627051,29.8911519 C29.0323614,29.8911519 27.5142904,30.5996143 26.2149245,31.9393799 C24.9895325,33.3563048 24.3398495,35.0082147 24.3398495,36.8986169 L24.3398495,53.8245557 L96.5286287,53.8245557 L96.5286287,53.8245557 Z M50.1116779,24.3041191 L70.7568004,24.3041191 L70.7568004,29.8946592 L50.1116779,29.8946592 L50.1116779,24.3041191 Z M55.3091414,63.6658704 L65.6333107,63.6658704 L65.6333107,58.0753303 L55.3091414,58.0753303 L55.3091414,63.6658704 Z" id="Fill-47"></path>
                    </g>
                </g>
            </g>
        </g>
    </g>
</svg>