<?xml version="1.0" encoding="UTF-8" standalone="no"?>
<svg width="142px" height="142px" viewBox="0 0 142 142" version="1.1" xmlns="http://www.w3.org/2000/svg" xmlns:xlink="http://www.w3.org/1999/xlink">
    <!-- Generator: Sketch 42 (36781) - http://www.bohemiancoding.com/sketch -->
    <title>Group</title>
    <desc>Created with Sketch.</desc>
    <defs></defs>
    <g id="Welcome" stroke="none" stroke-width="1" fill="none" fill-rule="evenodd">
        <g id="Desktop" transform="translate(-441.000000, -1873.000000)">
            <g id="Group" transform="translate(441.000000, 1873.000000)">
                <circle id="Oval-5-Copy" fill="#00425C" cx="71" cy="71" r="71"></circle>
                <g id="Group-5" transform="translate(10.000000, 20.000000)" stroke="#F9F9F9" stroke-width="2">
                    <g id="fa-cogs" transform="translate(0.000000, 0.378719)">
                        <path d="M20.3575586,57.3387715 C20.5889457,57.5707773 20.8237864,57.6469584 21.0551735,57.7266021 L27.6445269,58.737732 C28.0313233,59.8250429 28.4975512,61.0681786 29.1951661,62.3113144 C28.7289383,62.9346136 28.0313233,63.8660997 27.1782991,64.9534106 C26.2492969,66.1203653 25.6276598,66.8198455 25.3962727,67.28732 C25.1648855,67.5193258 25.0854541,67.8309754 25.0854541,68.0629812 C25.0854541,68.8386425 27.1782991,71.1725519 31.2880111,74.9816028 C31.5988296,75.2136087 31.9096482,75.3694335 32.2170132,75.3694335 C32.6072632,75.3694335 32.8386503,75.2897897 33.0700375,75.0577838 L38.188183,71.1725519 C39.3485723,71.7923884 40.4364372,72.2598628 41.4414172,72.5715124 L42.4498508,79.1784844 C42.4498508,79.490134 42.60526,79.7221398 42.8366472,79.9541457 C43.0714879,80.1896143 43.3788529,80.2657953 43.6896714,80.2657953 L51.7536862,80.2657953 C52.4513012,80.2657953 52.8380976,79.9541457 53.0694847,79.2546654 C53.3803033,77.8557049 53.7670997,75.6014393 54.0779183,72.4918686 C55.1623297,72.1836818 56.3261725,71.7162074 57.4105839,71.1725519 L62.3733202,75.0577838 C62.6047073,75.2897897 62.9155259,75.3694335 63.2263444,75.3694335 C63.844528,75.3694335 64.9289394,74.5141284 66.6349879,72.8035183 C68.3410364,71.0929081 69.5808571,69.7735914 70.2024942,68.9182863 C70.4338814,68.6862805 70.5133128,68.4508119 70.5133128,68.0629812 C70.5133128,67.7513316 70.4338814,67.5193258 70.2024942,67.2076762 C68.5724236,65.2650602 67.3326029,63.6340939 66.3241693,62.2351333 C66.9458065,61.0681786 67.4120343,59.9012239 67.7193993,58.8900941 L74.3881841,57.882427 C74.6990026,57.882427 74.9303898,57.7266021 75.0857991,57.4149525 C75.3171862,57.1829467 75.3966176,56.8712971 75.3966176,56.5596475 L75.3966176,48.553715 C75.3966176,48.2420654 75.3171862,47.9338785 75.0857991,47.6984099 C74.9303898,47.4664041 74.6990026,47.3105793 74.3881841,47.2343982 L67.7988307,46.2232684 C67.4880122,45.2883195 67.0217843,44.1248276 66.3241693,42.7258671 C66.7903972,42.1025678 67.4120343,41.1710817 68.2650585,40.0837708 C69.1146293,38.9929972 69.7362664,38.2173359 70.1230628,37.7498614 C70.2784721,37.4382118 70.4338814,37.206206 70.4338814,36.9742002 C70.4338814,36.1188951 68.3410364,33.8646295 64.1553465,29.9793976 C63.844528,29.743929 63.6131408,29.6677479 63.2263444,29.6677479 C62.9155259,29.6677479 62.6047073,29.743929 62.3733202,29.9793976 L57.2551746,33.7849857 C56.0947853,33.2413303 55.0069204,32.7773186 54.0779183,32.465669 L53.0694847,25.858697 C52.9935069,25.5470474 52.9140755,25.3150416 52.6067104,25.0830357 C52.3718698,24.8475671 52.0610512,24.7713861 51.7536862,24.7713861 L43.6896714,24.7713861 C43.0714879,24.7713861 42.60526,25.0830357 42.4498508,25.782516 C42.0630543,27.1018327 41.7522358,29.3560983 41.4414172,32.465669 C40.2015965,32.8534996 39.0412073,33.3209741 38.1087516,33.8646295 L33.1494689,29.9793976 C32.8386503,29.743929 32.5278318,29.6677479 32.2170132,29.6677479 C31.6748075,29.6677479 30.5144182,30.523053 28.8083697,32.2336632 C27.0228898,33.9408105 25.8625005,35.1839462 25.2408634,36.0392513 C25.0094763,36.2747199 24.9300449,36.5863695 24.9300449,36.9742002 C24.9300449,37.206206 25.0094763,37.5178556 25.2408634,37.8295052 C26.8709341,39.7721212 28.1867326,41.4030876 29.1157347,42.8020481 C28.4975512,43.9690028 28.0313233,45.0563137 27.7239583,46.0674436 L21.0551735,47.1547545 C20.744355,47.1547545 20.5889457,47.3105793 20.3575586,47.6222289 C20.1261714,47.8542347 20.04674,48.1658843 20.04674,48.3978902 L20.04674,56.4834664 C20.04674,56.7916533 20.1261714,57.0271219 20.3575586,57.3387715 L20.3575586,57.3387715 Z M47.7234056,41.4030876 C50.8212305,41.4030876 53.3803033,42.4903985 55.5491261,44.668483 C57.7214024,46.8431048 58.8058138,49.40902 58.8058138,52.5185907 C58.8058138,55.5485176 57.7214024,58.1906138 55.5491261,60.3686984 C53.3803033,62.5433202 50.8212305,63.6340939 47.7234056,63.6340939 C44.698105,63.6340939 42.0630543,62.5433202 39.890778,60.3686984 C37.7219552,58.1906138 36.6375438,55.5485176 36.6375438,52.5185907 C36.6375438,49.40902 37.7219552,46.8431048 39.890778,44.668483 C42.0630543,42.4903985 44.698105,41.4030876 47.7234056,41.4030876 L47.7234056,41.4030876 Z M76.3256198,79.0988406 C76.6364383,79.8779647 77.0992126,80.6536259 77.6414183,81.3531062 C76.1702105,84.6185017 75.3966176,86.6407614 75.3966176,87.3402417 C75.3966176,87.4164227 75.4725955,87.5722475 75.6280048,87.6484285 C79.1160797,89.6706883 80.8981061,90.6818182 80.9775375,90.6818182 C81.2089246,90.6818182 81.8305617,90.0585189 82.9149731,88.6595584 C84.0753624,87.3402417 84.7729774,86.3291118 85.1632273,85.7058126 C85.7814109,85.7854564 86.1716609,85.7854564 86.4790259,85.7854564 C86.7898444,85.7854564 87.1766409,85.7854564 87.798278,85.7058126 C88.1850744,86.3291118 88.9621208,87.3402417 90.0465322,88.6595584 C91.1309436,90.0585189 91.8285586,90.6818182 92.0599457,90.6818182 C92.0599457,90.6818182 93.8454257,89.6706883 97.4094784,87.6484285 C97.4889098,87.5722475 97.5648877,87.4164227 97.5648877,87.3402417 C97.5648877,86.6407614 96.8672727,84.6185017 95.3960649,81.3531062 C95.8588392,80.6536259 96.325067,79.8779647 96.6358856,79.0988406 C100.976985,78.6348289 103.06983,78.2435355 103.06983,77.7795239 L103.06983,71.7162074 C103.06983,71.2487329 100.976985,70.7847213 96.6358856,70.3172468 C96.2456356,69.4619418 95.8588392,68.7624615 95.3960649,68.0629812 C96.8672727,64.7975858 97.5648877,62.7787888 97.5648877,62.0793085 C97.5648877,61.9996647 97.4889098,61.8438399 97.4094784,61.7676589 C93.9214035,59.7453991 92.1393771,58.737732 92.0599457,58.737732 L91.7525807,58.813913 C90.5887379,60.0570488 89.2694858,61.6118341 87.798278,63.7102749 C87.1766409,63.6340939 86.7898444,63.6340939 86.4790259,63.6340939 C86.1716609,63.6340939 85.7814109,63.6340939 85.1632273,63.7102749 C84.7729774,63.0869756 84.0753624,62.0793085 82.9149731,60.756529 C81.8305617,59.4372123 81.2089246,58.737732 80.9775375,58.737732 C80.8981061,58.737732 80.4353318,58.9697379 79.6582854,59.4372123 C78.8846925,59.9012239 78.0316683,60.3686984 77.0992126,60.9123538 C76.2461883,61.4560093 75.7039826,61.7676589 75.6280048,61.7676589 C75.4725955,61.8438399 75.3966176,61.9996647 75.3966176,62.0793085 C75.3966176,62.7787888 76.1702105,64.7975858 77.6414183,68.0629812 C77.0992126,68.7624615 76.7124162,69.4619418 76.3256198,70.3172468 C72.0604985,70.7847213 69.8916757,71.2487329 69.8916757,71.7162074 L69.8916757,77.7795239 C69.8916757,78.2435355 72.0604985,78.6348289 76.3256198,79.0988406 L76.3256198,79.0988406 Z M76.3256198,34.6402908 C76.6364383,35.4955959 77.0992126,36.1950761 77.6414183,36.9742002 C76.1702105,40.2361329 75.3966176,42.1822116 75.3966176,42.9578729 C75.3966176,43.0375167 75.4725955,43.1136977 75.6280048,43.1898787 C79.1160797,45.2883195 80.8981061,46.2994494 80.9775375,46.2994494 C81.2089246,46.2994494 81.8305617,45.5999691 82.9149731,44.2806524 C84.0753624,42.8816919 84.7729774,41.946743 85.1632273,41.3269065 C85.7814109,41.4030876 86.1716609,41.4030876 86.4790259,41.4030876 C86.7898444,41.4030876 87.1766409,41.4030876 87.798278,41.3269065 C88.1850744,41.946743 88.9621208,42.8816919 90.0465322,44.2806524 C91.1309436,45.5999691 91.8285586,46.2994494 92.0599457,46.2994494 C92.0599457,46.2994494 93.8454257,45.2883195 97.4094784,43.1898787 C97.4889098,43.1136977 97.5648877,43.0375167 97.5648877,42.9578729 C97.5648877,42.1822116 96.8672727,40.2361329 95.3960649,36.9742002 C95.8588392,36.1950761 96.325067,35.4955959 96.6358856,34.6402908 C100.976985,34.2524601 103.06983,33.7849857 103.06983,33.3209741 L103.06983,27.2576575 C103.06983,26.7901831 100.976985,26.3261714 96.6358856,25.934878 C96.2456356,25.0830357 95.8588392,24.3039117 95.3960649,23.6840752 C96.8672727,20.4186797 97.5648877,18.39642 97.5648877,17.6969397 C97.5648877,17.5411149 97.4889098,17.4649339 97.4094784,17.3852901 C93.9214035,15.3664931 92.1393771,14.3553632 92.0599457,14.3553632 L91.7525807,14.435007 C90.5887379,15.5984989 89.2694858,17.2329281 87.798278,19.2517251 C87.1766409,19.2517251 86.7898444,19.175544 86.4790259,19.175544 C86.1716609,19.175544 85.7814109,19.2517251 85.1632273,19.2517251 C84.7729774,18.7080696 84.0753624,17.6969397 82.9149731,16.377623 C81.8305617,14.9786625 81.2089246,14.3553632 80.9775375,14.3553632 C80.8981061,14.3553632 80.4353318,14.5873691 79.6582854,15.0548435 C78.8846925,15.5223179 78.0316683,15.9863296 77.0992126,16.5334478 C76.2461883,16.9974595 75.7039826,17.3091091 75.6280048,17.3852901 C75.4725955,17.4649339 75.3966176,17.5411149 75.3966176,17.6969397 C75.3966176,18.39642 76.1702105,20.4186797 77.6414183,23.6840752 C77.0992126,24.3039117 76.7124162,25.0830357 76.3256198,25.934878 C72.0604985,26.3261714 69.8916757,26.7901831 69.8916757,27.2576575 L69.8916757,33.3209741 C69.8916757,33.7849857 72.0604985,34.2524601 76.3256198,34.6402908 L76.3256198,34.6402908 Z M82.6041546,70.7847213 C83.688566,69.6939476 85.0078181,69.1502921 86.4790259,69.1502921 C87.9536873,69.1502921 89.2694858,69.6939476 90.3573508,70.7847213 C91.51774,71.8720322 92.0599457,73.1913489 92.0599457,74.7461342 C92.0599457,76.2247385 91.51774,77.5440553 90.4333286,78.6348289 C89.3489172,79.7221398 88.0296651,80.2657953 86.4790259,80.2657953 C84.9283867,80.2657953 83.688566,79.7221398 82.6041546,78.6348289 C81.5197432,77.5440553 80.9775375,76.2247385 80.9775375,74.7461342 C80.9775375,73.1913489 81.5197432,71.8720322 82.6041546,70.7847213 L82.6041546,70.7847213 Z M82.6041546,26.4023525 C83.688566,25.3150416 85.0078181,24.7713861 86.4790259,24.7713861 C87.9536873,24.7713861 89.2694858,25.3150416 90.3573508,26.4023525 C91.51774,27.4896634 92.0599457,28.8124429 92.0599457,30.2875844 C92.0599457,31.8423697 91.51774,33.1651492 90.4333286,34.2524601 C89.3489172,35.339771 88.0296651,35.8868893 86.4790259,35.8868893 C84.9283867,35.8868893 83.688566,35.339771 82.6041546,34.2524601 C81.5197432,33.1651492 80.9775375,31.8423697 80.9775375,30.2875844 C80.9775375,28.8124429 81.5197432,27.4896634 82.6041546,26.4023525 L82.6041546,26.4023525 Z" id="Fill-182"></path>
                    </g>
                </g>
            </g>
        </g>
    </g>
</svg>